<svg width="175" height="45" viewBox="0 0 175 45" fill="none" xmlns="http://www.w3.org/2000/svg">
<g clip-path="url(#clip0_13_255)">
<path d="M65.8486 6.63234L172.175 0.498199L175 38.1683L68.392 44.6702L65.8486 6.63234Z" fill="#FEC830"/>
<path d="M2.31065 42.5462C1.93472 33.6684 0 4.87608 0 4.87608L56.5574 1.54608L70.8724 19.9196L58.8804 39.3403L2.31 42.5462H2.31065Z" fill="black"/>
<path d="M13.6488 23.2682C13.5593 22.068 13.7201 20.8627 14.1219 19.7261C14.5033 18.6326 15.1026 17.6265 15.8843 16.7677C16.6925 15.8953 17.6654 15.1885 18.7478 14.6874C19.908 14.1409 21.1654 13.8208 22.45 13.7437C23.9258 13.6466 25.2448 13.7739 26.4082 14.1262C27.5961 14.4902 28.7101 15.0586 29.6995 15.8053L27.0888 19.341C26.4643 18.8814 25.771 18.5218 25.0342 18.2752C24.3011 18.0508 23.5315 17.9679 22.7669 18.0309C22.1684 18.0602 21.5829 18.2153 21.0493 18.486C20.5175 18.7555 20.0498 19.1347 19.6779 19.5982C18.8787 20.5605 18.5242 21.6997 18.6149 23.0149C18.7108 24.4164 19.2352 25.5427 20.1886 26.3944C21.1414 27.2462 22.3093 27.6262 23.6912 27.5336C24.8196 27.4577 25.7374 27.1479 26.4439 26.6047L26.2955 24.4492L22.8214 24.6806L22.5848 21.2413L30.6322 20.7077L31.1656 28.4612C29.0981 30.3596 26.6344 31.4023 23.7748 31.59C21.9781 31.7102 20.3306 31.4389 18.8314 30.7768C17.3676 30.1452 16.1114 29.1197 15.205 27.8164C14.2859 26.5037 13.7674 24.9879 13.6494 23.2682H13.6488ZM35.0889 21.8719C35.0024 20.679 35.1679 19.4813 35.575 18.3555C35.9641 17.2579 36.5668 16.2468 37.349 15.3797C38.1583 14.5001 39.1327 13.7855 40.2177 13.2757C42.5548 12.1757 45.2257 11.9965 47.6908 12.7742C48.8286 13.1327 49.8846 13.7086 50.7993 14.4694C51.6857 15.2236 52.4119 16.1451 52.9356 17.1804C53.487 18.2521 53.8108 19.4246 53.8871 20.6254C53.9727 21.8185 53.8074 23.0162 53.4017 24.1425C53.0158 25.2409 52.4151 26.2531 51.6342 27.1209C50.8274 27.9992 49.8553 28.7126 48.7726 29.2211C47.6189 29.7743 46.3671 30.0982 45.0879 30.1744C43.3249 30.2921 41.6955 30.0009 40.2008 29.3034C38.7489 28.6417 37.506 27.6003 36.6055 26.2911C35.705 24.9819 35.181 23.4542 35.0895 21.8719H35.0889ZM40.0511 21.5428C40.138 22.8137 40.6344 23.8764 41.5419 24.7314C42.4493 25.5864 43.5498 25.9714 44.8429 25.8853C46.1521 25.7992 47.1892 25.2784 47.9566 24.3244C48.724 23.3698 49.063 22.2454 48.9742 20.9514C48.8867 19.6804 48.3895 18.6178 47.4834 17.7628C46.576 16.9078 45.4664 16.5234 44.1545 16.6095C42.8621 16.6957 41.8322 17.2157 41.0655 18.1704C40.2981 19.1244 39.9604 20.2487 40.0511 21.5428ZM81.2273 33.8207L80.0457 16.6564L84.8868 16.335L86.0722 33.4999L81.2273 33.8207ZM87.6673 20.3464L87.3802 16.1679L102.718 15.1515L103.006 19.3294L97.7525 19.6759L98.6463 32.6662L93.8059 32.9869L92.9121 19.9961L87.6673 20.3471V20.3464ZM102.68 25.7464C102.612 24.8177 102.72 23.8844 103.001 22.9957C103.259 22.1553 103.681 21.3735 104.243 20.6942C104.811 20.0224 105.513 19.4728 106.307 19.0781C107.151 18.6538 108.074 18.4063 109.018 18.351C110.148 18.2758 111.17 18.4024 112.083 18.7316C112.943 19.0268 113.717 19.5255 114.338 20.1844C114.936 20.8348 115.409 21.5882 115.734 22.4074C116.083 23.2914 116.29 24.2229 116.346 25.1692C116.376 25.5922 116.389 25.9123 116.388 26.1283L107.341 26.7281C107.578 27.4417 107.965 27.972 108.501 28.3179C109.037 28.6631 109.678 28.8109 110.424 28.7614C111.475 28.6888 112.443 28.1617 113.326 27.18L116.096 29.1568C114.779 31.0314 112.882 32.0509 110.402 32.2149C108.996 32.3087 107.726 32.1043 106.591 31.6022C105.479 31.1207 104.53 30.3321 103.858 29.3304C103.167 28.3147 102.774 27.1209 102.68 25.7471V25.7464ZM107.105 24.3476L111.798 24.0364C111.657 23.2997 111.365 22.7302 110.922 22.3277C110.478 21.9253 109.935 21.7453 109.292 21.7871C109.003 21.8013 108.72 21.8758 108.462 22.0057C108.204 22.1357 107.976 22.3181 107.794 22.5412C107.406 23.0027 107.176 23.6051 107.105 24.3476ZM118.037 24.7294C117.968 23.8005 118.076 22.8671 118.356 21.9774C118.615 21.1373 119.037 20.3555 119.598 19.6759C120.167 19.0048 120.869 18.4545 121.661 18.0592C122.505 17.6347 123.429 17.3874 124.373 17.3327C125.504 17.2582 126.525 17.3842 127.438 17.7127C128.298 18.0071 129.073 18.5052 129.695 19.1636C130.293 19.8135 130.766 20.5668 131.09 21.3859C131.439 22.2712 131.645 23.2039 131.702 24.1515C131.732 24.5745 131.745 24.894 131.744 25.1107L122.698 25.7111C122.934 26.4247 123.321 26.9544 123.857 27.2996C124.393 27.6454 125.034 27.7933 125.78 27.7438C126.837 27.6731 127.805 27.1459 128.685 26.1617L131.454 28.1385C130.137 30.0131 128.239 31.032 125.76 31.1966C124.354 31.2904 123.083 31.086 121.95 30.5839C120.838 30.1022 119.889 29.3134 119.216 28.3114C118.524 27.2964 118.132 26.1026 118.037 24.7294ZM122.461 23.3293L127.154 23.0175C127.014 22.2814 126.721 21.7125 126.277 21.3094C125.833 20.9064 125.29 20.7257 124.647 20.7682C124.358 20.7824 124.076 20.8571 123.818 20.9873C123.56 21.1174 123.333 21.3002 123.151 21.5235C122.761 21.9864 122.531 22.5881 122.461 23.3293ZM134.397 30.2953L133.486 17.0293L138.229 16.7143L138.358 18.5934C139.415 17.064 140.713 16.2482 142.251 16.1467C143.682 16.0509 144.835 16.4115 145.712 17.2273C146.589 18.0437 147.08 19.2099 147.185 20.7257L147.781 29.4062L143.039 29.7199L142.541 22.5553C142.493 21.8462 142.282 21.3101 141.908 20.9482C141.535 20.5849 141.059 20.4223 140.481 20.4596C139.885 20.4994 139.417 20.7264 139.078 21.1404C138.738 21.5544 138.592 22.1111 138.64 22.8131L139.132 29.9777L134.397 30.2947V30.2953ZM149.33 27.5747L150.916 24.6356C152.544 25.5176 154.127 25.9072 155.663 25.8056C156.46 25.7509 156.841 25.4803 156.807 24.9917C156.792 24.7597 156.615 24.5777 156.28 24.4479C155.946 24.3174 155.369 24.1779 154.561 24.03C154.035 23.9338 153.513 23.8202 152.994 23.6893C152.538 23.5692 152.093 23.4111 151.664 23.2168C151.261 23.0458 150.888 22.8138 150.557 22.5289C150.256 22.2508 150.011 21.9183 149.834 21.5492C149.628 21.1205 149.508 20.6557 149.483 20.1812C149.386 18.7766 149.81 17.6484 150.757 16.7985C151.702 15.948 152.981 15.4697 154.59 15.3637C155.59 15.2983 156.594 15.374 157.572 15.5887C158.519 15.7867 159.43 16.1242 160.274 16.5896L158.856 19.6528C158.154 19.342 157.424 19.0988 156.675 18.9264C155.944 18.7605 155.311 18.6956 154.775 18.7316C154.417 18.7547 154.149 18.8306 153.97 18.9598C153.886 19.0143 153.819 19.0902 153.775 19.1797C153.731 19.269 153.713 19.3682 153.721 19.467C153.738 19.7004 153.911 19.8817 154.242 20.0109C154.574 20.1401 155.158 20.2944 155.996 20.4737C156.608 20.5959 157.131 20.718 157.564 20.8376C158.019 20.9662 158.465 21.1301 158.895 21.3262C159.298 21.4965 159.671 21.7279 160.002 22.0121C160.301 22.2866 160.545 22.6132 160.723 22.9751C160.929 23.3904 161.047 23.8417 161.072 24.3032C161.171 25.7522 160.753 26.8978 159.815 27.7406C158.877 28.5834 157.562 29.061 155.871 29.1735C153.456 29.3323 151.276 28.7994 149.33 27.5747Z" fill="white"/>
</g>
<defs>
<clipPath id="clip0_13_255">
<rect width="175" height="45" fill="white"/>
</clipPath>
</defs>
</svg>
